<?xml version="1.0" encoding="UTF-8" standalone="no"?>
<svg
   width="199.97627"
   height="199.93172"
   viewBox="0 0 199.97627 199.93172"
   version="1.1"
   id="svg3"
   sodipodi:docname="Logo.svg"
   inkscape:version="1.4.2 (f4327f4, 2025-05-13)"
   xmlns:inkscape="http://www.inkscape.org/namespaces/inkscape"
   xmlns:sodipodi="http://sodipodi.sourceforge.net/DTD/sodipodi-0.dtd"
   xmlns="http://www.w3.org/2000/svg"
   xmlns:svg="http://www.w3.org/2000/svg">
  <sodipodi:namedview
     id="namedview3"
     pagecolor="#ffffff"
     borderopacity="0.25"
     inkscape:showpageshadow="2"
     inkscape:pageopacity="0.0"
     inkscape:pagecheckerboard="0"
     inkscape:deskcolor="#d1d1d1"
     inkscape:zoom="1.4902275"
     inkscape:cx="-26.1705"
     inkscape:cy="145.27983"
     inkscape:window-width="1920"
     inkscape:window-height="1057"
     inkscape:window-x="-8"
     inkscape:window-y="-8"
     inkscape:window-maximized="1"
     inkscape:current-layer="svg3"
     bordercolor="#000000" />
  <defs
     id="defs3">
    <linearGradient
       id="mainGradient"
       x1="20"
       y1="20"
       x2="180"
       y2="20"
       gradientUnits="userSpaceOnUse"
       gradientTransform="matrix(1.2498517,0,0,1.2495732,-24.997036,-24.991465)">
      <stop
         offset="0"
         stop-color="#b300a0"
         id="stop1" />
      <stop
         offset="0.48"
         stop-color="#3600f0"
         id="stop2" />
      <stop
         offset="1"
         stop-color="#00c7ed"
         id="stop3" />
    </linearGradient>
  </defs>
  <!-- Скругленный квадрат с градиентом -->
  <rect
     x="0"
     y="0"
     width="199.97627"
     height="199.93172"
     rx="49.994068"
     fill="url(#mainGradient)"
     id="rect3"
     style="fill:url(#mainGradient);stroke-width:1.24971" />
  <!-- Упрощенная нота -->
  <path
     fill="#ffffff"
     d="m 141.15254,40.322072 c -0.65417,-0.0037 -1.28365,0.03086 -1.9008,0.13824 h -0.13576 l -58.332189,7.53406 c -4.418731,0.580112 -9.18306,3.226413 -11.972539,6.371364 -2.912906,3.283192 -4.937128,8.538766 -4.937128,12.950091 v 32.078999 c -2.900564,0.845474 -6.035641,0.804744 -8.615291,2.352534 -5.258043,3.13508 -9.812545,7.70439 -12.93528,12.95009 v 0.0926 c -3.258504,5.52218 -4.937128,12.03796 -4.937128,18.36612 0,6.33681 1.666281,12.88467 4.937128,18.42784 h 0.04691 v 0.0926 c 3.135076,5.21978 7.640207,9.75576 12.885907,12.86986 h 0.01605 l 0.01605,0.0161 c 5.529585,3.2906 12.071281,5.00131 18.415493,5.00131 6.381239,0 12.99699,-1.728 18.551256,-5.0655 5.233358,-3.11532 9.713811,-7.63033 12.824191,-12.87109 0.40732,0.27771 0.6048,0.77143 1.02446,1.01705 h 0.0691 l 0.0691,0.0926 c 5.54193,3.26838 12.07129,4.93713 18.41549,4.93713 6.33188,0 12.88591,-1.67369 18.42784,-4.93713 l 0.0691,-0.0926 h 0.0432 c 5.22102,-3.12891 9.7138,-7.64515 12.82419,-12.88591 v -0.0926 c 3.30788,-5.54193 5.06056,-12.11201 5.06056,-18.47597 v -0.0926 c -0.17279,-28.255193 -0.0494,-31.814858 -0.37028,-62.116492 -0.27154,-4.807529 -2.81417,-10.572862 -6.50467,-13.793105 -3.33256,-2.81046 -8.61529,-4.786547 -13.15745,-4.811232 z m 0.56776,17.631723 c 0.75292,-0.03086 1.41944,0.230812 2.01189,0.752913 0.70354,0.572707 1.04914,1.316979 1.04914,2.246393 v 61.404309 c 0,3.68927 -0.91338,7.05639 -2.72777,10.08285 -1.77736,3.02276 -4.18421,5.44689 -7.22055,7.26375 -3.02399,1.78353 -6.38124,2.67592 -10.08408,2.67592 -3.6905,0 -7.0601,-0.89239 -10.08409,-2.67592 -3.02399,-1.81686 -5.44318,-4.23853 -7.25758,-7.26375 -1.78971,-3.02276 -2.6784,-6.38741 -2.6784,-10.08285 0,-3.69792 0.88869,-7.0564 2.6784,-10.08286 1.8144,-3.02275 4.23359,-5.43084 7.25758,-7.21561 3.02399,-1.81686 6.38124,-2.72282 10.08409,-2.72282 2.25873,0 4.39404,0.50359 6.40592,0.18514 l 0.13577,-21.513539 c 0,-0.794878 -0.29623,-1.470031 -0.91337,-2.005709 -0.6048,-0.540616 -1.30833,-0.744273 -2.09827,-0.61961 l -32.202428,4.155829 c -0.641829,0.09257 -1.184913,0.370285 -1.629251,0.905962 -0.444349,0.481371 -0.666513,1.054078 -0.666513,1.719356 v 47.880271 c 0.02463,0.23081 0.037,0.46286 0.037,0.61961 0,3.68927 -0.913361,7.05639 -2.727756,10.08286 -1.777374,3.02275 -4.18422,5.43207 -7.220555,7.21561 -3.023992,1.81687 -6.38124,2.72283 -10.084087,2.72283 -3.690504,0 -7.060095,-0.90103 -10.084086,-2.72283 -3.023992,-1.78354 -5.443186,-4.19286 -7.257581,-7.21561 -1.789709,-3.02276 -2.678392,-6.38742 -2.678392,-10.08286 0,-3.65594 0.888683,-7.00826 2.678392,-10.03471 1.814395,-3.05979 4.233589,-5.47898 7.257581,-7.26252 3.023991,-1.81687 6.381239,-2.72283 10.084086,-2.72283 2.159994,0 3.949703,0.75292 5.924555,-0.13824 l 0.56779,-45.665967 c 0,-0.767725 0.2592,-1.4293 0.765255,-2.005709 0.506056,-0.572707 1.13554,-0.905964 1.863766,-1.008409 L 141.35003,57.27494 c 0.11108,-0.01605 0.22216,-0.02716 0.33325,-0.03086 z"
     id="path3"
     style="stroke-width:1.23428" />
</svg>
