<?xml version="1.0" encoding="UTF-8" standalone="no"?>
<svg
   width="16"
   height="16"
   fill="currentColor"
   class="bi bi-telegram"
   viewBox="0 0 16 16"
   version="1.1"
   id="svg4"
   sodipodi:docname="Rutube.svg"
   inkscape:version="1.1 (c68e22c387, 2021-05-23)"
   xmlns:inkscape="http://www.inkscape.org/namespaces/inkscape"
   xmlns:sodipodi="http://sodipodi.sourceforge.net/DTD/sodipodi-0.dtd"
   xmlns="http://www.w3.org/2000/svg"
   xmlns:svg="http://www.w3.org/2000/svg">
  <defs
     id="defs8" />
  <sodipodi:namedview
     id="namedview6"
     pagecolor="#ffffff"
     bordercolor="#cccccc"
     borderopacity="1"
     inkscape:pageshadow="0"
     inkscape:pageopacity="1"
     inkscape:pagecheckerboard="0"
     showgrid="false"
     inkscape:zoom="22.627417"
     inkscape:cx="6.8500969"
     inkscape:cy="7.88866"
     inkscape:window-width="1920"
     inkscape:window-height="1017"
     inkscape:window-x="-8"
     inkscape:window-y="-8"
     inkscape:window-maximized="1"
     inkscape:current-layer="svg4" />
  <path
     style="fill:#000000;stroke-width:1;fill-opacity:1;stroke:none"
     d="M 3.0569812,15.894718 C 1.9771525,15.660827 0.90562838,14.833623 0.43586042,13.871244 0.01004149,12.998899 0,12.863649 0,8.0001008 0,3.1365523 0.01004549,3.0013011 0.43586042,2.128956 0.73915932,1.5076102 1.5107134,0.73585972 2.1320302,0.43235329 3.0331261,-0.00782235 3.1617915,-0.01675717 8.248685,0.0075964 l 4.591426,0.02197676 0.50531,0.184912 c 1.196105,0.43769875 2.022653,1.27355814 2.458804,2.48650604 l 0.165356,0.4598586 0.02254,4.5924158 c 0.02497,5.0882604 0.01609,5.2164624 -0.4241,6.1179734 -0.30344,0.621452 -1.075026,1.393172 -1.696237,1.696536 -0.874634,0.427121 -1.001719,0.436408 -5.9054504,0.431533 -3.5435233,-0.0035 -4.5408248,-0.02477 -4.9093514,-0.104595 z M 5.1914817,10.703183 V 9.3854222 l 1.8321132,0.018994 1.8321132,0.018994 0.8736028,1.2987678 0.8736021,1.298768 h 1.13747 1.13747 l -0.61894,-0.836195 C 11.918495,10.724845 11.487155,10.140613 11.300379,9.8864592 L 10.960788,9.4243618 11.307885,9.3111835 C 11.769841,9.1605547 11.983625,9.0124277 12.229966,8.6722914 12.52884,8.2596177 12.62164,7.7829873 12.624105,6.6479578 12.627305,5.1738127 12.385036,4.6300351 11.540169,4.2150677 L 11.132509,4.014839 7.1303203,3.9942533 3.1281311,3.9736676 v 4.0236361 4.0236373 h 1.0316753 1.0316753 z m 0,-4.022206 V 5.7532626 l 2.5677516,0.020355 2.5677507,0.020355 0.13595,0.1680061 c 0.109681,0.1355444 0.135951,0.2833621 0.135951,0.7650274 0,0.9473543 0.21198,0.8816833 -2.8460022,0.8816833 H 5.1914817 Z"
     id="path4714" />
  <g
     id="g3793"
     transform="translate(-18.119611,4.2868349)" />
</svg>
